<svg xmlns="http://www.w3.org/2000/svg" xmlns:xlink="http://www.w3.org/1999/xlink" viewBox="0 0 649.33 396"><defs><style>.cls-1,.cls-2{stroke-miterlimit:10;}.cls-1{fill:url(#linear-gradient);stroke:url(#linear-gradient-2);}.cls-2{fill:none;stroke:#f7931e;}.cls-3{fill:#f7931e;}</style><linearGradient id="linear-gradient" x1="0.5" y1="198" x2="649" y2="198" gradientUnits="userSpaceOnUse"><stop offset="0" stop-color="#fff"/><stop offset="1" stop-color="#29abe2"/></linearGradient><linearGradient id="linear-gradient-2" x1="0" y1="198" x2="649" y2="198" xlink:href="#linear-gradient"/></defs><title>Layer 1</title><g id="Layer_2" data-name="Layer 2"><g id="Layer_1-2" data-name="Layer 1"><g id="three-act"><polyline class="cls-1" points="649 394.45 0.5 395 0.5 1.28 648.17 1"/><rect class="cls-2" x="0.5" y="0.5" width="216.33" height="395"/><rect class="cls-2" x="216.5" y="0.5" width="216.33" height="395"/><rect class="cls-2" x="432.5" y="0.5" width="216.33" height="395"/><path class="cls-3" d="M9.53,335.68l52.66-27.63,126.42-66.32,152-79.72L472.65,92.72,515.94,70c6.74-3.54,14.38-6.58,20.69-10.86.27-.18.6-.31.9-.47l-8.82-3.58,36.49,93.58,58.16,149.17,13.35,34.25c2.78,7.11,14.39,4,11.58-3.2L611.8,235.32,553.64,86.15,540.29,51.9c-1.44-3.68-5.12-5.52-8.82-3.58L478.81,76,352.39,142.27,200.44,222,68.35,291.28,25.06,314c-6.87,3.61-14,6.94-20.69,10.86-.29.17-.6.31-.9.47-6.84,3.59-.78,13.95,6.06,10.36Z"/></g></g></g></svg>