<svg id="Layer_1" data-name="Layer 1" xmlns="http://www.w3.org/2000/svg" xmlns:xlink="http://www.w3.org/1999/xlink" viewBox="0 0 206.98 339.09"><defs><style>.cls-1,.cls-2{stroke-miterlimit:10;}.cls-1{fill:url(#linear-gradient);stroke:url(#linear-gradient-2);}.cls-2{fill:none;stroke:#f7931e;}.cls-3{fill:#f7931e;}</style><linearGradient id="linear-gradient" x1="167.55" y1="208.51" x2="505.73" y2="208.51" gradientTransform="matrix(0, -1, -1, 0, 312, 506.14)" gradientUnits="userSpaceOnUse"><stop offset="0" stop-color="#fff"/><stop offset="1" stop-color="#29abe2"/></linearGradient><linearGradient id="linear-gradient-2" x1="167.05" y1="208.51" x2="505.73" y2="208.51" xlink:href="#linear-gradient"/></defs><title>three-act</title><g id="three-act"><polyline class="cls-1" points="205.94 0.41 206.22 338.59 0.91 338.59 0.76 0.84"/><rect class="cls-2" x="0.5" y="225.78" width="205.98" height="112.81"/><rect class="cls-2" x="0.5" y="113.14" width="205.98" height="112.81"/><rect class="cls-2" x="0.5" y="0.5" width="205.98" height="112.81"/><path class="cls-3" d="M388,350.47,373.61,323,339,257.08l-41.57-79.26-36.14-68.88L249.48,86.39c-1.85-3.52-3.44-7.5-5.67-10.79a5.16,5.16,0,0,1-.24-.47l-1.87,4.6,48.8-19,77.79-30.33,17.86-7c3.71-1.45,2.09-7.51-1.67-6l-48.79,19L257.9,66.73l-17.86,7a3.19,3.19,0,0,0-1.87,4.6l14.43,27.46,34.56,65.93,41.58,79.23,36.13,68.89,11.85,22.57c1.88,3.58,3.62,7.3,5.66,10.79.09.15.16.31.25.47,1.87,3.57,7.27.41,5.4-3.16Z" transform="translate(-212.73 -16.59)"/></g></svg>